frame=    0 fps=0.0 q=0.0 size=       0kB time=00:00:00.41 bitrate=   0.0kbits/s speed=0.83x    frame=    0 fps=0.0 q=0.0 size=       0kB time=00:00:00.89 bitrate=   0.0kbits/s speed=0.895x    frame=   29 fps= 19 q=15.8 size=     124kB time=00:00:01.42 bitrate= 713.1kbits/s speed=0.947x    frame=   29 fps= 14 q=15.8 size=     124kB time=00:00:01.92 bitrate= 526.6kbits/s speed=0.958x    frame=   60 fps= 24 q=16.1 size=     170kB time=00:00:02.40 bitrate= 578.0kbits/s speed=0.958x    frame=   60 fps= 20 q=16.1 size=     170kB time=00:00:02.93 bitrate= 474.0kbits/s speed=0.972x    frame=   91 fps= 26 q=19.0 size=     224kB time=00:00:03.43 bitrate= 534.4kbits/s speed=0.975x    frame=   91 fps= 23 q=19.0 size=     224kB time=00:00:03.94 bitrate= 466.1kbits/s speed=0.979x    frame=  122 fps= 27 q=17.5 size=     276kB time=00:00:04.44 bitrate= 508.2kbits/s speed=0.981x    frame=  122 fps= 24 q=17.5 size=     276kB time=00:00:04.95 bitrate= 456.4kbits/s speed=0.982x    frame=  153 fps= 28 q=19.8 size=     313kB time=00:00:05.45 bitrate= 469.4kbits/s speed=0.983x    frame=  153 fps= 25 q=19.8 size=     313kB time=00:00:05.95 bitrate= 429.7kbits/s speed=0.984x    frame=  183 fps= 28 q=22.6 size=     358kB time=00:00:06.46 bitrate= 453.7kbits/s speed=0.986x    frame=  183 fps= 26 q=22.6 size=     358kB time=00:00:06.96 bitrate= 420.9kbits/s speed=0.986x    frame=  214 fps= 28 q=24.6 size=     392kB time=00:00:07.47 bitrate= 429.6kbits/s speed=0.986x    frame=  215 fps= 27 q=24.7 size=     392kB time=00:00:07.97 bitrate= 402.9kbits/s speed=0.987x    frame=  245 fps= 29 q=24.9 size=     434kB time=00:00:08.50 bitrate= 418.5kbits/s speed=0.99x    frame=  247 fps= 27 q=24.9 size=     435kB time=00:00:08.95 bitrate= 397.9kbits/s speed=0.986x    frame=  275 fps= 29 q=27.7 size=     467kB time=00:00:09.51 bitrate= 402.0kbits/s speed=0.992x    frame=  277 fps= 27 q=24.8 size=     476kB time=00:00:09.96 bitrate= 391.6kbits/s speed=0.988x    frame=  306 fps= 29 q=25.2 size=     507kB time=00:00:10.49 bitrate= 395.4kbits/s speed=0.99x    frame=  309 fps= 28 q=26.8 size=     508kB time=00:00:10.97 bitrate= 378.9kbits/s speed=0.988x    frame=  337 fps= 29 q=24.8 size=     546kB time=00:00:11.52 bitrate= 388.0kbits/s speed=0.993x    frame=  344 fps= 28 q=30.2 size=     549kB time=00:00:11.98 bitrate= 375.0kbits/s speed=0.989x    frame=  368 fps= 29 q=23.2 size=     574kB time=00:00:12.53 bitrate= 375.4kbits/s speed=0.993x    frame=  372 fps= 28 q=23.4 size=     575kB time=00:00:12.96 bitrate= 363.5kbits/s speed=0.988x    frame=  399 fps= 29 q=31.0 size=     614kB time=00:00:13.54 bitrate= 371.3kbits/s speed=0.993x    frame=  405 fps= 29 q=31.0 size=     616kB time=00:00:13.97 bitrate= 361.2kbits/s speed=0.988x    frame=  430 fps= 29 q=30.7 size=     643kB time=00:00:14.52 bitrate= 362.9kbits/s speed=0.992x    frame=  436 fps= 29 q=27.9 size=     654kB time=00:00:14.98 bitrate= 357.8kbits/s speed=0.989x    frame=  461 fps= 29 q=31.0 size=     681kB time=00:00:15.55 bitrate= 358.6kbits/s speed=0.994x    frame=  468 fps= 29 q=30.9 size=     683kB time=00:00:15.99 bitrate= 349.9kbits/s speed=0.99x    frame=  492 fps= 30 q=29.4 size=     708kB time=00:00:16.56 bitrate= 350.0kbits/s speed=0.995x    frame=  502 fps= 29 q=28.0 size=     719kB time=00:00:16.99 bitrate= 346.7kbits/s speed=0.991x    frame=  523 fps= 30 q=25.5 size=     744kB time=00:00:17.57 bitrate= 346.9kbits/s speed=0.995x    frame=  536 fps= 30 q=27.6 size=     757kB time=00:00:17.98 bitrate= 344.7kbits/s speed=0.99x    frame=  554 fps= 30 q=31.0 size=     780kB time=00:00:18.50 bitrate= 345.4kbits/s speed=0.991x    frame=  561 fps= 29 q=31.0 size=     782kB time=00:00:18.99 bitrate= 337.3kbits/s speed=0.991x    frame=  585 fps= 30 q=28.7 size=     806kB time=00:00:19.53 bitrate= 338.0kbits/s speed=0.993x    frame=  595 fps= 29 q=30.2 size=     817kB time=00:00:19.99 bitrate= 334.7kbits/s speed=0.991x    frame=  615 fps= 30 q=31.0 size=     842kB time=00:00:20.53 bitrate= 335.8kbits/s speed=0.993x    frame=  629 fps= 30 q=31.0 size=     855kB time=00:00:21.00 bitrate= 333.4kbits/s speed=0.992x    frame=  645 fps= 30 q=31.0 size=     868kB time=00:00:21.53 bitrate= 330.3kbits/s speed=0.993x    frame=  661 fps= 30 q=24.8 size=     891kB time=00:00:22.06 bitrate= 330.9kbits/s speed=0.994x    frame=  676 fps= 30 q=31.0 size=     905kB time=00:00:22.56 bitrate= 328.6kbits/s speed=0.994x    frame=  691 fps= 30 q=31.0 size=     918kB time=00:00:23.06 bitrate= 325.9kbits/s speed=0.994x    frame=  706 fps= 30 q=31.0 size=     930kB time=00:00:23.56 bitrate= 323.3kbits/s speed=0.994x    frame=  721 fps= 30 q=24.8 size=     951kB time=00:00:24.06 bitrate= 323.6kbits/s speed=0.994x    frame=  737 fps= 30 q=31.0 size=     963kB time=00:00:24.60 bitrate= 320.7kbits/s speed=0.995x    frame=  752 fps= 30 q=31.0 size=     978kB time=00:00:25.10 bitrate= 319.1kbits/s speed=0.995x    frame=  767 fps= 30 q=31.0 size=     991kB time=00:00:25.60 bitrate= 317.1kbits/s speed=0.995x    frame=  782 fps= 30 q=31.0 size=    1013kB time=00:00:26.10 bitrate= 317.8kbits/s speed=0.995x    frame=  797 fps= 30 q=31.0 size=    1026kB time=00:00:26.60 bitrate= 316.1kbits/s speed=0.994x    frame=  813 fps= 30 q=31.0 size=    1040kB time=00:00:27.13 bitrate= 314.0kbits/s speed=0.996x    frame=  828 fps= 30 q=31.0 size=    1052kB time=00:00:27.63 bitrate= 311.9kbits/s speed=0.996x    frame=  843 fps= 30 q=31.0 size=    1073kB time=00:00:28.13 bitrate= 312.4kbits/s speed=0.995x    frame=  858 fps= 30 q=31.0 size=    1084kB time=00:00:28.63 bitrate= 310.3kbits/s speed=0.995x    frame=  873 fps= 30 q=31.0 size=    1096kB time=00:00:29.13 bitrate= 308.2kbits/s speed=0.995x    frame=  888 fps= 30 q=31.0 size=    1108kB time=00:00:29.63 bitrate= 306.3kbits/s speed=0.995x    frame=  903 fps= 30 q=31.0 size=    1129kB time=00:00:30.13 bitrate= 306.9kbits/s speed=0.995x    frame=  919 fps= 30 q=31.0 size=    1142kB time=00:00:30.66 bitrate= 304.9kbits/s speed=0.996x    frame=  926 fps= 30 q=31.0 size=    1152kB time=00:00:31.20 bitrate= 302.5kbits/s speed=0.997x    frame=  926 fps= 29 q=31.0 size=    1152kB time=00:00:31.71 bitrate= 297.7kbits/s speed=0.997x    frame=  957 fps= 30 q=31.0 size=    1179kB time=00:00:32.21 bitrate= 299.9kbits/s speed=0.997x    frame=  957 fps= 29 q=31.0 size=    1179kB time=00:00:32.71 bitrate= 295.3kbits/s speed=0.997x    frame=  988 fps= 30 q=31.0 size=    1216kB time=00:00:33.22 bitrate= 299.8kbits/s speed=0.997x    frame=  988 fps= 29 q=31.0 size=    1216kB time=00:00:33.72 bitrate= 295.4kbits/s speed=0.997x    frame= 1019 fps= 30 q=31.0 size=    1244kB time=00:00:34.23 bitrate= 297.6kbits/s speed=0.997x    frame= 1019 fps= 29 q=31.0 size=    1244kB time=00:00:34.73 bitrate= 293.3kbits/s speed=0.997x    frame= 1050 fps= 30 q=31.0 size=    1283kB time=00:00:35.23 bitrate= 298.3kbits/s speed=0.997x    frame= 1050 fps= 29 q=31.0 size=    1283kB time=00:00:35.74 bitrate= 294.1kbits/s speed=0.997x    frame= 1081 fps= 30 q=24.8 size=    1322kB time=00:00:36.24 bitrate= 298.9kbits/s speed=0.997x    frame= 1081 fps= 29 q=24.8 size=    1322kB time=00:00:36.77 bitrate= 294.6kbits/s speed=0.998x    frame= 1112 fps= 30 q=31.0 size=    1352kB time=00:00:37.25 bitrate= 297.2kbits/s speed=0.997x    frame= 1112 fps= 29 q=31.0 size=    1352kB time=00:00:37.75 bitrate= 293.3kbits/s speed=0.997x    frame= 1143 fps= 30 q=31.0 size=    1390kB time=00:00:38.28 bitrate= 297.4kbits/s speed=0.998x    frame= 1143 fps= 29 q=31.0 size=    1390kB time=00:00:38.76 bitrate= 293.8kbits/s speed=0.998x    frame= 1174 fps= 30 q=31.0 size=    1418kB time=00:00:39.27 bitrate= 295.7kbits/s speed=0.997x    frame= 1174 fps= 29 q=31.0 size=    1418kB time=00:00:39.77 bitrate= 292.0kbits/s speed=0.998x    frame= 1205 fps= 30 q=31.0 size=    1455kB time=00:00:40.27 bitrate= 296.0kbits/s speed=0.998x    frame= 1205 fps= 29 q=31.0 size=    1455kB time=00:00:40.78 bitrate= 292.3kbits/s speed=0.998x    frame= 1236 fps= 30 q=31.0 size=    1481kB time=00:00:41.23 bitrate= 294.2kbits/s speed=0.996x    frame= 1236 fps= 30 q=31.0 size=    1481kB time=00:00:41.79 bitrate= 290.3kbits/s speed=0.998x    frame= 1267 fps= 30 q=31.0 size=    1518kB time=00:00:42.26 bitrate= 294.1kbits/s speed=0.997x    frame= 1267 fps= 30 q=31.0 size=    1518kB time=00:00:42.79 bitrate= 290.5kbits/s speed=0.998x    frame= 1297 fps= 30 q=24.8 size=    1552kB time=00:00:43.26 bitrate= 293.9kbits/s speed=0.997x    frame= 1298 fps= 30 q=31.0 size=    1552kB time=00:00:43.83 bitrate= 290.1kbits/s speed=0.998x    frame= 1328 fps= 30 q=31.0 size=    1580kB time=00:00:44.30 bitrate= 292.1kbits/s speed=0.997x    frame= 1329 fps= 30 q=31.0 size=    1580kB time=00:00:44.83 bitrate= 288.6kbits/s speed=0.998x    frame= 1358 fps= 30 q=31.0 size=    1616kB time=00:00:45.30 bitrate= 292.3kbits/s speed=0.997x    frame= 1360 fps= 30 q=31.0 size=    1617kB time=00:00:45.82 bitrate= 289.1kbits/s speed=0.998x    frame= 1388 fps= 30 q=31.0 size=    1643kB time=00:00:46.30 bitrate= 290.8kbits/s speed=0.997x    frame= 1391 fps= 30 q=31.0 size=    1646kB time=00:00:46.85 bitrate= 287.7kbits/s speed=0.998x    frame= 1418 fps= 30 q=31.0 size=    1683kB time=00:00:47.30 bitrate= 291.4kbits/s speed=0.997x    frame= 1422 fps= 30 q=31.0 size=    1684kB time=00:00:47.86 bitrate= 288.3kbits/s speed=0.998x    frame= 1449 fps= 30 q=31.0 size=    1711kB time=00:00:48.33 bitrate= 290.1kbits/s speed=0.997x    frame= 1453 fps= 30 q=24.8 size=    1722kB time=00:00:48.87 bitrate= 288.6kbits/s speed=0.998x    frame= 1479 fps= 30 q=31.0 size=    1749kB time=00:00:49.33 bitrate= 290.4kbits/s speed=0.997x    frame= 1484 fps= 30 q=31.0 size=    1751kB time=00:00:49.85 bitrate= 287.7kbits/s speed=0.998x    frame= 1509 fps= 30 q=31.0 size=    1778kB time=00:00:50.33 bitrate= 289.4kbits/s speed=0.997x    frame= 1515 fps= 30 q=31.0 size=    1789kB time=00:00:50.88 bitrate= 288.0kbits/s speed=0.998x    frame= 1540 fps= 30 q=31.0 size=    1818kB time=00:00:51.36 bitrate= 289.8kbits/s speed=0.998x    frame= 1546 fps= 30 q=31.0 size=    1819kB time=00:00:51.89 bitrate= 287.1kbits/s speed=0.998x    frame= 1570 fps= 30 q=31.0 size=    1843kB time=00:00:52.36 bitrate= 288.3kbits/s speed=0.998x    frame= 1577 fps= 30 q=31.0 size=    1855kB time=00:00:52.90 bitrate= 287.2kbits/s speed=0.998x    frame= 1600 fps= 30 q=31.0 size=    1879kB time=00:00:53.36 bitrate= 288.4kbits/s speed=0.997x    frame= 1608 fps= 30 q=31.0 size=    1881kB time=00:00:53.91 bitrate= 285.8kbits/s speed=0.998x    frame= 1631 fps= 30 q=31.0 size=    1905kB time=00:00:54.40 bitrate= 286.8kbits/s speed=0.998x    frame= 1639 fps= 30 q=31.0 size=    1916kB time=00:00:54.91 bitrate= 285.8kbits/s speed=0.998x    frame= 1661 fps= 30 q=31.0 size=    1940kB time=00:00:55.40 bitrate= 286.9kbits/s speed=0.998x    frame= 1670 fps= 30 q=31.0 size=    1953kB time=00:00:55.95 bitrate= 285.9kbits/s speed=0.999x    frame= 1691 fps= 30 q=31.0 size=    1968kB time=00:00:56.40 bitrate= 285.8kbits/s speed=0.998x    frame= 1701 fps= 30 q=31.0 size=    1980kB time=00:00:56.93 bitrate= 284.9kbits/s speed=0.998x    frame= 1722 fps= 30 q=31.0 size=    2004kB time=00:00:57.43 bitrate= 285.8kbits/s speed=0.998x    frame= 1732 fps= 30 q=31.0 size=    2015kB time=00:00:57.96 bitrate= 284.8kbits/s speed=0.999x    frame= 1752 fps= 30 q=31.0 size=    2033kB time=00:00:58.43 bitrate= 284.9kbits/s speed=0.998x    frame= 1763 fps= 30 q=31.0 size=    2044kB time=00:00:58.97 bitrate= 283.9kbits/s speed=0.999x    frame= 1782 fps= 30 q=31.0 size=    2067kB time=00:00:59.43 bitrate= 284.9kbits/s speed=0.998x    frame= 1794 fps= 30 q=31.0 size=    2079kB time=00:00:59.98 bitrate= 283.9kbits/s speed=0.998x    frame= 1813 fps= 30 q=24.8 size=    2101kB time=00:01:00.46 bitrate= 284.6kbits/s speed=0.998x    frame= 1825 fps= 30 q=24.8 size=    2115kB time=00:01:00.99 bitrate= 284.0kbits/s speed=0.998x    frame= 1843 fps= 30 q=31.0 size=    2130kB time=00:01:01.46 bitrate= 283.9kbits/s speed=0.998x    frame= 1856 fps= 30 q=31.0 size=    2143kB time=00:01:01.99 bitrate= 283.1kbits/s speed=0.998x    frame= 1873 fps= 30 q=24.8 size=    2167kB time=00:01:02.46 bitrate= 284.2kbits/s speed=0.998x    frame= 1886 fps= 30 q=31.0 size=    2179kB time=00:01:02.90 bitrate= 283.8kbits/s speed=0.997x    frame= 1902 fps= 30 q=31.0 size=    2194kB time=00:01:03.46 bitrate= 283.2kbits/s speed=0.998x    frame= 1916 fps= 30 q=31.0 size=    2207kB time=00:01:03.93 bitrate= 282.8kbits/s speed=0.997x    frame= 1916 fps= 30 q=31.0 size=    2207kB time=00:01:04.51 bitrate= 280.2kbits/s speed=0.998x    frame= 1917 fps= 29 q=31.0 size=    2208kB time=00:01:05.02 bitrate= 278.1kbits/s speed=0.998x    frame= 1947 fps= 30 q=31.0 size=    2244kB time=00:01:05.55 bitrate= 280.4kbits/s speed=0.999x    frame= 1947 fps= 29 q=31.0 size=    2244kB time=00:01:06.03 bitrate= 278.4kbits/s speed=0.998x    frame= 1977 fps= 30 q=31.0 size=    2271kB time=00:01:06.53 bitrate= 279.6kbits/s speed=0.998x    frame= 1977 fps= 29 q=31.0 size=    2271kB time=00:01:07.06 bitrate= 277.4kbits/s speed=0.999x    frame= 2008 fps= 30 q=31.0 size=    2308kB time=00:01:07.54 bitrate= 279.9kbits/s speed=0.998x    frame= 2008 fps= 29 q=31.0 size=    2308kB time=00:01:08.07 bitrate= 277.7kbits/s speed=0.999x    frame= 2039 fps= 30 q=31.0 size=    2336kB time=00:01:08.55 bitrate= 279.2kbits/s speed=0.999x    frame= 2039 fps= 29 q=31.0 size=    2336kB time=00:01:09.05 bitrate= 277.2kbits/s speed=0.999x    frame= 2070 fps= 30 q=31.0 size=    2372kB time=00:01:09.58 bitrate= 279.3kbits/s speed=0.999x    frame= 2070 fps= 30 q=31.0 size=    2372kB time=00:01:10.06 bitrate= 277.4kbits/s speed=0.999x    frame= 2101 fps= 30 q=24.8 size=    2409kB time=00:01:10.56 bitrate= 279.7kbits/s speed=0.999x    frame= 2101 fps= 30 q=24.8 size=    2409kB time=00:01:11.07 bitrate= 277.7kbits/s speed=0.999x    frame= 2132 fps= 30 q=31.0 size=    2434kB time=00:01:11.57 bitrate= 278.6kbits/s speed=0.999x    frame= 2132 fps= 30 q=31.0 size=    2434kB time=00:01:12.10 bitrate= 276.6kbits/s speed=0.999x    frame= 2163 fps= 30 q=31.0 size=    2469kB time=00:01:12.60 bitrate= 278.6kbits/s speed=0.999x    frame= 2163 fps= 30 q=31.0 size=    2469kB time=00:01:13.08 bitrate= 276.7kbits/s speed=0.998x    frame= 2194 fps= 30 q=31.0 size=    2495kB time=00:01:13.61 bitrate= 277.7kbits/s speed=0.999x    frame= 2194 fps= 30 q=31.0 size=    2495kB time=00:01:14.11 bitrate= 275.8kbits/s speed=0.999x    frame= 2225 fps= 30 q=31.0 size=    2535kB time=00:01:14.59 bitrate= 278.4kbits/s speed=0.999x    frame= 2225 fps= 30 q=31.0 size=    2535kB time=00:01:15.12 bitrate= 276.4kbits/s speed=0.999x    frame= 2256 fps= 30 q=31.0 size=    2564kB time=00:01:15.63 bitrate= 277.7kbits/s speed=0.999x    frame= 2256 fps= 30 q=31.0 size=    2564kB time=00:01:16.13 bitrate= 275.9kbits/s speed=0.999x    frame= 2285 fps= 30 q=31.0 size=    2600kB time=00:01:16.63 bitrate= 277.9kbits/s speed=0.999x    frame= 2285 fps= 30 q=31.0 size=    2600kB time=00:01:17.14 bitrate= 276.1kbits/s speed=0.999x    frame= 2316 fps= 30 q=31.0 size=    2629kB time=00:01:17.64 bitrate= 277.4kbits/s speed=0.999x    frame= 2316 fps= 30 q=31.0 size=    2629kB time=00:01:18.15 bitrate= 275.6kbits/s speed=0.999x    frame= 2347 fps= 30 q=31.0 size=    2663kB time=00:01:18.65 bitrate= 277.4kbits/s speed=0.999x    frame= 2347 fps= 30 q=31.0 size=    2663kB time=00:01:19.15 bitrate= 275.6kbits/s speed=0.999x    frame= 2378 fps= 30 q=31.0 size=    2700kB time=00:01:19.66 bitrate= 277.7kbits/s speed=0.999x    frame= 2379 fps= 30 q=31.0 size=    2701kB time=00:01:20.16 bitrate= 276.0kbits/s speed=0.999x    frame= 2409 fps= 30 q=31.0 size=    2724kB time=00:01:20.67 bitrate= 276.7kbits/s speed=0.999x    frame= 2410 fps= 30 q=31.0 size=    2725kB time=00:01:21.15 bitrate= 275.0kbits/s speed=0.999x    frame= 2440 fps= 30 q=31.0 size=    2758kB time=00:01:21.67 bitrate= 276.6kbits/s speed=0.999x    frame= 2441 fps= 30 q=31.0 size=    2758kB time=00:01:22.15 bitrate= 275.0kbits/s speed=0.999x    frame= 2471 fps= 30 q=31.0 size=    2782kB time=00:01:22.66 bitrate= 275.7kbits/s speed=0.999x    frame= 2473 fps= 30 q=24.8 size=    2792kB time=00:01:23.16 bitrate= 275.0kbits/s speed=0.999x    frame= 2502 fps= 30 q=31.0 size=    2818kB time=00:01:23.69 bitrate= 275.8kbits/s speed=0.999x    frame= 2504 fps= 30 q=31.0 size=    2818kB time=00:01:24.17 bitrate= 274.3kbits/s speed=0.999x    frame= 2533 fps= 30 q=24.8 size=    2851kB time=00:01:24.60 bitrate= 276.1kbits/s speed=0.998x    frame= 2535 fps= 30 q=31.0 size=    2852kB time=00:01:25.15 bitrate= 274.3kbits/s speed=0.998x    frame= 2564 fps= 30 q=31.0 size=    2877kB time=00:01:25.63 bitrate= 275.2kbits/s speed=0.998x    frame= 2567 fps= 30 q=31.0 size=    2877kB time=00:01:26.16 bitrate= 273.6kbits/s speed=0.998x    frame= 2595 fps= 30 q=31.0 size=    2913kB time=00:01:26.66 bitrate= 275.4kbits/s speed=0.998x    frame= 2598 fps= 30 q=31.0 size=    2914kB time=00:01:27.17 bitrate= 273.9kbits/s speed=0.998x    frame= 2625 fps= 30 q=31.0 size=    2941kB time=00:01:27.66 bitrate= 274.8kbits/s speed=0.998x    frame= 2631 fps= 30 q=31.0 size=    2952kB time=00:01:28.18 bitrate= 274.2kbits/s speed=0.998x    frame= 2655 fps= 30 q=31.0 size=    2977kB time=00:01:28.66 bitrate= 275.1kbits/s speed=0.998x    frame= 2661 fps= 30 q=31.0 size=    2979kB time=00:01:29.19 bitrate= 273.6kbits/s speed=0.998x    frame= 2686 fps= 30 q=31.0 size=    3003kB time=00:01:29.70 bitrate= 274.3kbits/s speed=0.998x    frame= 2697 fps= 30 q=31.0 size=    3016kB time=00:01:30.17 bitrate= 274.0kbits/s speed=0.998x    frame= 2716 fps= 30 q=31.0 size=    3039kB time=00:01:30.70 bitrate= 274.4kbits/s speed=0.998x    frame= 2725 fps= 30 q=24.8 size=    3049kB time=00:01:31.18 bitrate= 274.0kbits/s speed=0.998x    frame= 2746 fps= 30 q=31.0 size=    3063kB time=00:01:31.70 bitrate= 273.6kbits/s speed=0.998x    frame= 2756 fps= 30 q=31.0 size=    3074kB time=00:01:32.19 bitrate= 273.2kbits/s speed=0.998x    frame= 2776 fps= 30 q=31.0 size=    3097kB time=00:01:32.70 bitrate= 273.7kbits/s speed=0.998x    frame= 2789 fps= 30 q=31.0 size=    3110kB time=00:01:33.19 bitrate= 273.3kbits/s speed=0.998x    frame= 2807 fps= 30 q=31.0 size=    3123kB time=00:01:33.73 bitrate= 272.9kbits/s speed=0.999x    frame= 2822 fps= 30 q=31.0 size=    3144kB time=00:01:34.23 bitrate= 273.3kbits/s speed=0.999x    frame= 2837 fps= 30 q=31.0 size=    3157kB time=00:01:34.73 bitrate= 273.0kbits/s speed=0.999x    frame= 2851 fps= 30 q=31.0 size=    3169kB time=00:01:35.20 bitrate= 272.7kbits/s speed=0.998x    frame= 2867 fps= 30 q=31.0 size=    3181kB time=00:01:35.73 bitrate= 272.2kbits/s speed=0.999x    frame= 2882 fps= 30 q=31.0 size=    3203kB time=00:01:36.23 bitrate= 272.7kbits/s speed=0.999x    frame= 2897 fps= 30 q=31.0 size=    3216kB time=00:01:36.73 bitrate= 272.4kbits/s speed=0.999x    frame= 2912 fps= 30 q=31.0 size=    3230kB time=00:01:37.23 bitrate= 272.1kbits/s speed=0.998x    frame= 2928 fps= 30 q=31.0 size=    3247kB time=00:01:37.76 bitrate= 272.0kbits/s speed=0.999x    frame= 2943 fps= 30 q=31.0 size=    3268kB time=00:01:38.26 bitrate= 272.5kbits/s speed=0.999x    frame= 2956 fps= 30 q=31.0 size=    3283kB time=00:01:38.73 bitrate= 272.4kbits/s speed=0.998x    frame= 2970 fps= 30 q=31.0 size=    3298kB time=00:01:39.26 bitrate= 272.2kbits/s speed=0.998x    frame= 2985 fps= 30 q=31.0 size=    3313kB time=00:01:39.76 bitrate= 272.0kbits/s speed=0.998x    frame= 2995 fps= 30 q=31.0 size=    3326kB time=00:01:40.32 bitrate= 271.6kbits/s speed=0.999x    frame= 2995 fps= 30 q=31.0 size=    3326kB time=00:01:40.85 bitrate= 270.1kbits/s speed=0.999x    frame= 3026 fps= 30 q=31.0 size=    3368kB time=00:01:41.26 bitrate= 272.4kbits/s speed=0.998x    frame= 3026 fps= 30 q=31.0 size=    3368kB time=00:01:41.86 bitrate= 270.8kbits/s speed=0.999x    frame= 3053 fps= 30 q=31.0 size=    3402kB time=00:01:42.22 bitrate= 272.7kbits/s speed=0.998x    frame= 3057 fps= 30 q=31.0 size=    3404kB time=00:01:42.84 bitrate= 271.1kbits/s speed=0.999x    frame= 3080 fps= 30 q=31.0 size=    3435kB time=00:01:43.20 bitrate= 272.6kbits/s speed=0.998x    frame= 3088 fps= 30 q=31.0 size=    3448kB time=00:01:43.85 bitrate= 272.0kbits/s speed=0.999x    frame= 3119 fps= 30 q=31.0 size=    3485kB time=00:01:44.23 bitrate= 273.9kbits/s speed=0.998x    frame= 3119 fps= 30 q=31.0 size=    3485kB time=00:01:44.86 bitrate= 272.2kbits/s speed=0.999x    frame= 3150 fps= 30 q=31.0 size=    3534kB time=00:01:45.26 bitrate= 275.0kbits/s speed=0.998x    frame= 3150 fps= 30 q=31.0 size=    3534kB time=00:01:45.87 bitrate= 273.5kbits/s speed=0.999x    frame= 3180 fps= 30 q=31.0 size=    3565kB time=00:01:46.26 bitrate= 274.8kbits/s speed=0.998x    frame= 3181 fps= 30 q=24.8 size=    3574kB time=00:01:46.87 bitrate= 274.0kbits/s speed=0.999x    frame= 3208 fps= 30 q=31.0 size=    3602kB time=00:01:47.23 bitrate= 275.2kbits/s speed=0.998x    frame= 3211 fps= 30 q=31.0 size=    3603kB time=00:01:47.88 bitrate= 273.6kbits/s speed=0.999x    frame= 3241 fps= 30 q=24.8 size=    3647kB time=00:01:48.33 bitrate= 275.8kbits/s speed=0.999x    frame= 3242 fps= 30 q=31.0 size=    3647kB time=00:01:48.89 bitrate= 274.4kbits/s speed=0.999x    frame= 3268 fps= 30 q=31.0 size=    3677kB time=00:01:49.23 bitrate= 275.8kbits/s speed=0.998x    frame= 3273 fps= 30 q=31.0 size=    3682kB time=00:01:49.90 bitrate= 274.4kbits/s speed=0.999x    frame= 3299 fps= 30 q=31.0 size=    3710kB time=00:01:50.36 bitrate= 275.4kbits/s speed=0.999x    frame= 3301 fps= 30 q=24.8 size=    3719kB time=00:01:50.91 bitrate= 274.7kbits/s speed=0.999x    frame= 3329 fps= 30 q=31.0 size=    3746kB time=00:01:51.36 bitrate= 275.5kbits/s speed=0.999x    frame= 3332 fps= 30 q=31.0 size=    3748kB time=00:01:51.91 bitrate= 274.3kbits/s speed=0.999x    frame= 3360 fps= 30 q=31.0 size=    3780kB time=00:01:52.40 bitrate= 275.5kbits/s speed=0.999x    frame= 3363 fps= 30 q=31.0 size=    3790kB time=00:01:52.92 bitrate= 275.0kbits/s speed=0.999x    frame= 3390 fps= 30 q=31.0 size=    3830kB time=00:01:53.40 bitrate= 276.7kbits/s speed=0.999x    frame= 3394 fps= 30 q=31.0 size=    3833kB time=00:01:53.95 bitrate= 275.5kbits/s speed=0.999x    frame= 3420 fps= 30 q=31.0 size=    3861kB time=00:01:54.40 bitrate= 276.5kbits/s speed=0.999x    frame= 3425 fps= 30 q=31.0 size=    3871kB time=00:01:54.94 bitrate= 275.9kbits/s speed=0.999x    frame= 3450 fps= 30 q=31.0 size=    3898kB time=00:01:55.40 bitrate= 276.7kbits/s speed=0.999x    frame= 3456 fps= 30 q=31.0 size=    3901kB time=00:01:55.95 bitrate= 275.6kbits/s speed=0.999x    frame= 3481 fps= 30 q=24.8 size=    3935kB time=00:01:56.43 bitrate= 276.9kbits/s speed=0.999x    frame= 3487 fps= 30 q=31.0 size=    3937kB time=00:01:56.98 bitrate= 275.7kbits/s speed=0.999x    frame= 3510 fps= 30 q=31.0 size=    3963kB time=00:01:57.43 bitrate= 276.4kbits/s speed=0.999x    frame= 3517 fps= 30 q=24.8 size=    3975kB time=00:01:57.99 bitrate= 276.0kbits/s speed=0.999x    frame= 3541 fps= 30 q=24.8 size=    4002kB time=00:01:58.46 bitrate= 276.7kbits/s speed=0.999x    frame= 3548 fps= 30 q=31.0 size=    4005kB time=00:01:58.99 bitrate= 275.7kbits/s speed=0.999x    frame= 3571 fps= 30 q=31.0 size=    4029kB time=00:01:59.46 bitrate= 276.3kbits/s speed=0.999x    frame= 3579 fps= 30 q=31.0 size=    4040kB time=00:02:00.00 bitrate= 275.8kbits/s speed=0.999x    frame= 3601 fps= 30 q=24.8 size=    4064kB time=00:02:00.46 bitrate= 276.4kbits/s speed=0.999x    frame= 3610 fps= 30 q=31.0 size=    4067kB time=00:02:01.01 bitrate= 275.3kbits/s speed=0.999x    frame= 3631 fps= 30 q=31.0 size=    4088kB time=00:02:01.46 bitrate= 275.7kbits/s speed=0.999x    frame= 3640 fps= 30 q=31.0 size=    4099kB time=00:02:02.02 bitrate= 275.2kbits/s speed=0.999x    frame= 3661 fps= 30 q=24.8 size=    4123kB time=00:02:02.50 bitrate= 275.7kbits/s speed=0.999x    frame= 3671 fps= 30 q=31.0 size=    4126kB time=00:02:03.03 bitrate= 274.7kbits/s speed=0.999x    frame= 3691 fps= 30 q=31.0 size=    4148kB time=00:02:03.50 bitrate= 275.2kbits/s speed=0.999x    frame= 3702 fps= 30 q=31.0 size=    4160kB time=00:02:04.03 bitrate= 274.8kbits/s speed=0.999x    frame= 3721 fps= 30 q=24.8 size=    4189kB time=00:02:04.50 bitrate= 275.6kbits/s speed=0.999x    frame= 3733 fps= 30 q=24.8 size=    4202kB time=00:02:05.04 bitrate= 275.3kbits/s speed=0.999x    frame= 3751 fps= 30 q=31.0 size=    4217kB time=00:02:05.50 bitrate= 275.3kbits/s speed=0.999x    frame= 3764 fps= 30 q=31.0 size=    4231kB time=00:02:06.05 bitrate= 274.9kbits/s speed=0.999x    frame= 3782 fps= 30 q=31.0 size=    4254kB time=00:02:06.53 bitrate= 275.4kbits/s speed=0.999x    frame= 3795 fps= 30 q=31.0 size=    4267kB time=00:02:07.06 bitrate= 275.1kbits/s speed=0.999x    frame= 3812 fps= 30 q=31.0 size=    4280kB time=00:02:07.53 bitrate= 274.9kbits/s speed=0.999x    frame= 3826 fps= 30 q=31.0 size=    4294kB time=00:02:08.00 bitrate= 274.8kbits/s speed=0.999x    frame= 3842 fps= 30 q=31.0 size=    4315kB time=00:02:08.53 bitrate= 275.0kbits/s speed=0.999x    frame= 3857 fps= 30 q=31.0 size=    4332kB time=00:02:09.03 bitrate= 275.0kbits/s speed=0.999x    frame= 3873 fps= 30 q=31.0 size=    4348kB time=00:02:09.56 bitrate= 274.9kbits/s speed=0.999x    frame= 3888 fps= 30 q=31.0 size=    4374kB time=00:02:10.06 bitrate= 275.5kbits/s speed=0.999x    frame= 3903 fps= 30 q=31.0 size=    4399kB time=00:02:10.56 bitrate= 276.0kbits/s speed=0.999x    frame= 3918 fps= 30 q=31.0 size=    4413kB time=00:02:11.06 bitrate= 275.8kbits/s speed=0.999x    frame= 3933 fps= 30 q=31.0 size=    4449kB time=00:02:11.56 bitrate= 277.0kbits/s speed=0.999x    frame= 3948 fps= 30 q=31.0 size=    4467kB time=00:02:12.06 bitrate= 277.1kbits/s speed=0.999x    frame= 3963 fps= 30 q=31.0 size=    4491kB time=00:02:12.56 bitrate= 277.5kbits/s speed=0.999x    frame= 3978 fps= 30 q=31.0 size=    4505kB time=00:02:13.06 bitrate= 277.3kbits/s speed=0.999x    frame= 3981 fps= 30 q=31.0 size=    4506kB time=00:02:13.61 bitrate= 276.3kbits/s speed=0.999x    frame= 3981 fps= 30 q=31.0 size=    4506kB time=00:02:14.11 bitrate= 275.2kbits/s speed=0.999x    frame= 4012 fps= 30 q=31.0 size=    4542kB time=00:02:14.62 bitrate= 276.4kbits/s speed=0.999x    frame= 4012 fps= 30 q=31.0 size=    4542kB time=00:02:15.12 bitrate= 275.3kbits/s speed=0.999x    frame= 4043 fps= 30 q=31.0 size=    4577kB time=00:02:15.63 bitrate= 276.5kbits/s speed=0.999x    frame= 4043 fps= 30 q=31.0 size=    4577kB time=00:02:16.13 bitrate= 275.4kbits/s speed=0.999x    frame= 4074 fps= 30 q=31.0 size=    4620kB time=00:02:16.63 bitrate= 277.0kbits/s speed=0.999x    frame= 4074 fps= 30 q=31.0 size=    4620kB time=00:02:17.14 bitrate= 276.0kbits/s speed=0.999x    frame= 4105 fps= 30 q=24.8 size=    4661kB time=00:02:17.64 bitrate= 277.4kbits/s speed=0.999x    frame= 4105 fps= 30 q=24.8 size=    4661kB time=00:02:18.15 bitrate= 276.4kbits/s speed=0.999x    frame= 4136 fps= 30 q=31.0 size=    4691kB time=00:02:18.65 bitrate= 277.1kbits/s speed=0.999x    frame= 4136 fps= 30 q=31.0 size=    4691kB time=00:02:19.15 bitrate= 276.1kbits/s speed=0.999x    frame= 4167 fps= 30 q=31.0 size=    4731kB time=00:02:19.68 bitrate= 277.5kbits/s speed=0.999x    frame= 4167 fps= 30 q=31.0 size=    4731kB time=00:02:20.16 bitrate= 276.5kbits/s speed=0.999x    frame= 4198 fps= 30 q=31.0 size=    4761kB time=00:02:20.67 bitrate= 277.3kbits/s speed=0.999x    frame= 4198 fps= 30 q=31.0 size=    4761kB time=00:02:21.19 bitrate= 276.2kbits/s speed=0.999x    frame= 4229 fps= 30 q=31.0 size=    4800kB time=00:02:21.67 bitrate= 277.5kbits/s speed=0.999x    frame= 4229 fps= 30 q=31.0 size=    4800kB time=00:02:22.18 bitrate= 276.6kbits/s speed=0.999x    frame= 4260 fps= 30 q=31.0 size=    4829kB time=00:02:22.71 bitrate= 277.2kbits/s speed=0.999x    frame= 4260 fps= 30 q=31.0 size=    4829kB time=00:02:23.19 bitrate= 276.3kbits/s speed=0.999x    frame= 4291 fps= 30 q=31.0 size=    4865kB time=00:02:23.71 bitrate= 277.3kbits/s speed=0.999x    frame= 4291 fps= 30 q=31.0 size=    4865kB time=00:02:24.19 bitrate= 276.4kbits/s speed=0.999x    frame= 4322 fps= 30 q=31.0 size=    4903kB time=00:02:24.70 bitrate= 277.6kbits/s speed=0.999x    frame= 4322 fps= 30 q=31.0 size=    4903kB time=00:02:25.23 bitrate= 276.6kbits/s speed=0.999x    frame= 4353 fps= 30 q=31.0 size=    4932kB time=00:02:25.71 bitrate= 277.3kbits/s speed=0.999x    frame= 4353 fps= 30 q=31.0 size=    4932kB time=00:02:26.21 bitrate= 276.3kbits/s speed=0.999x    frame= 4384 fps= 30 q=31.0 size=    4971kB time=00:02:26.74 bitrate= 277.5kbits/s speed=0.999x    frame= 4384 fps= 30 q=31.0 size=    4971kB time=00:02:27.22 bitrate= 276.6kbits/s speed=0.999x    frame= 4415 fps= 30 q=31.0 size=    4997kB time=00:02:27.75 bitrate= 277.1kbits/s speed=0.999x    frame= 4415 fps= 30 q=31.0 size=    4997kB time=00:02:28.25 bitrate= 276.1kbits/s speed=0.999x    frame= 4446 fps= 30 q=31.0 size=    5032kB time=00:02:28.73 bitrate= 277.2kbits/s speed=0.999x    frame= 4446 fps= 30 q=31.0 size=    5032kB time=00:02:29.26 bitrate= 276.2kbits/s speed=0.999x    frame= 4477 fps= 30 q=24.8 size=    5068kB time=00:02:29.70 bitrate= 277.3kbits/s speed=0.999x    frame= 4477 fps= 30 q=24.8 size=    5068kB time=00:02:30.24 bitrate= 276.3kbits/s speed=0.999x    frame= 4508 fps= 30 q=31.0 size=    5095kB time=00:02:30.73 bitrate= 276.9kbits/s speed=0.999x    frame= 4508 fps= 30 q=31.0 size=    5095kB time=00:02:31.25 bitrate= 275.9kbits/s speed=0.999x    frame= 4534 fps= 30 q=31.0 size=    5119kB time=00:02:31.63 bitrate= 276.6kbits/s speed=0.998x    frame= 4535 fps= 30 q=31.0 size=    5119kB time=00:02:32.28 bitrate= 275.4kbits/s speed=0.999x    frame= 4564 fps= 30 q=31.0 size=    5153kB time=00:02:32.73 bitrate= 276.4kbits/s speed=0.999x    frame= 4565 fps= 30 q=31.0 size=    5153kB time=00:02:33.29 bitrate= 275.4kbits/s speed=0.999x    frame= 4594 fps= 30 q=31.0 size=    5177kB time=00:02:33.73 bitrate= 275.9kbits/s speed=0.999x    frame= 4596 fps= 30 q=31.0 size=    5177kB time=00:02:34.30 bitrate= 274.9kbits/s speed=0.999x    frame= 4624 fps= 30 q=31.0 size=    5210kB time=00:02:34.73 bitrate= 275.9kbits/s speed=0.999x    frame= 4627 fps= 30 q=31.0 size=    5211kB time=00:02:35.31 bitrate= 274.9kbits/s speed=0.999x    frame= 4655 fps= 30 q=31.0 size=    5236kB time=00:02:35.76 bitrate= 275.4kbits/s speed=0.999x    frame= 4658 fps= 30 q=31.0 size=    5246kB time=00:02:36.31 bitrate= 274.9kbits/s speed=0.999x    frame= 4685 fps= 30 q=31.0 size=    5270kB time=00:02:36.76 bitrate= 275.4kbits/s speed=0.999x    frame= 4689 fps= 30 q=31.0 size=    5271kB time=00:02:37.32 bitrate= 274.5kbits/s speed=0.999x    frame= 4715 fps= 30 q=31.0 size=    5297kB time=00:02:37.76 bitrate= 275.0kbits/s speed=0.999x    frame= 4720 fps= 30 q=31.0 size=    5307kB time=00:02:38.33 bitrate= 274.6kbits/s speed=0.999x    frame= 4746 fps= 30 q=31.0 size=    5331kB time=00:02:38.80 bitrate= 275.0kbits/s speed=0.999x    frame= 4751 fps= 30 q=31.0 size=    5333kB time=00:02:39.34 bitrate= 274.2kbits/s speed=0.999x    frame= 4776 fps= 30 q=31.0 size=    5361kB time=00:02:39.80 bitrate= 274.8kbits/s speed=0.999x    frame= 4782 fps= 30 q=31.0 size=    5372kB time=00:02:40.37 bitrate= 274.4kbits/s speed=0.999x    frame= 4806 fps= 30 q=31.0 size=    5401kB time=00:02:40.80 bitrate= 275.2kbits/s speed=0.999x    frame= 4813 fps= 30 q=24.8 size=    5413kB time=00:02:41.38 bitrate= 274.7kbits/s speed=   1x    frame= 4836 fps= 30 q=31.0 size=    5432kB time=00:02:41.80 bitrate= 275.0kbits/s speed=0.999x    frame= 4844 fps= 30 q=31.0 size=    5444kB time=00:02:42.36 bitrate= 274.7kbits/s speed=0.999x    frame= 4866 fps= 30 q=31.0 size=    5470kB time=00:02:42.80 bitrate= 275.2kbits/s speed=0.999x    frame= 4875 fps= 30 q=31.0 size=    5482kB time=00:02:43.37 bitrate= 274.9kbits/s speed=0.999x    frame= 4896 fps= 30 q=31.0 size=    5499kB time=00:02:43.83 bitrate= 275.0kbits/s speed=0.999x    frame= 4907 fps= 30 q=31.0 size=    5511kB time=00:02:44.38 bitrate= 274.6kbits/s speed=0.999x    frame= 4926 fps= 30 q=31.0 size=    5534kB time=00:02:44.86 bitrate= 275.0kbits/s speed=0.999x    frame= 4937 fps= 30 q=31.0 size=    5546kB time=00:02:45.39 bitrate= 274.7kbits/s speed=0.999x    frame= 4955 fps= 30 q=31.0 size=    5560kB time=00:02:45.86 bitrate= 274.6kbits/s speed=0.999x    frame= 4969 fps= 30 q=24.8 size=    5581kB time=00:02:46.37 bitrate= 274.8kbits/s speed=0.999x    frame= 4986 fps= 30 q=31.0 size=    5599kB time=00:02:46.90 bitrate= 274.8kbits/s speed=0.999x    frame= 5001 fps= 30 q=31.0 size=    5613kB time=00:02:47.40 bitrate= 274.7kbits/s speed=0.999x    frame= 5015 fps= 30 q=31.0 size=    5626kB time=00:02:47.86 bitrate= 274.6kbits/s speed=0.999x    frame= 5026 fps= 30 q=31.0 size=    5639kB time=00:02:48.46 bitrate= 274.2kbits/s speed=0.999x    frame= 5026 fps= 30 q=31.0 size=    5639kB time=00:02:48.94 bitrate= 273.4kbits/s speed=0.999x    frame= 5041 fps= 30 q=24.8 size=    5661kB time=00:02:49.39 bitrate= 273.7kbits/s speed=0.999x    frame= 5057 fps= 30 q=31.0 size=    5674kB time=00:02:49.97 bitrate= 273.4kbits/s speed=   1x    frame= 5071 fps= 30 q=31.0 size=    5686kB time=00:02:50.40 bitrate= 273.3kbits/s speed=0.999x    frame= 5088 fps= 30 q=31.0 size=    5700kB time=00:02:50.98 bitrate= 273.1kbits/s speed=   1x    frame= 5102 fps= 30 q=31.0 size=    5721kB time=00:02:51.39 bitrate= 273.4kbits/s speed=0.999x    frame= 5119 fps= 30 q=31.0 size=    5737kB time=00:02:51.96 bitrate= 273.3kbits/s speed=0.999x    frame= 5128 fps= 30 q=31.0 size=    5749kB time=00:02:52.39 bitrate= 273.2kbits/s speed=0.999x    frame= 5150 fps= 30 q=31.0 size=    5772kB time=00:02:52.99 bitrate= 273.3kbits/s speed=0.999x    frame= 5169 fps= 30 q=31.0 size=    5786kB time=00:02:53.40 bitrate= 273.3kbits/s speed=0.999x    frame= 5181 fps= 30 q=31.0 size=    5798kB time=00:02:54.00 bitrate= 272.9kbits/s speed=0.999x    frame= 5192 fps= 30 q=31.0 size=    5809kB time=00:02:54.41 bitrate= 272.9kbits/s speed=0.999x    frame= 5212 fps= 30 q=31.0 size=    5832kB time=00:02:55.01 bitrate= 273.0kbits/s speed=0.999x    frame= 5231 fps= 30 q=31.0 size=    5845kB time=00:02:55.39 bitrate= 273.0kbits/s speed=0.999x    frame= 5243 fps= 30 q=31.0 size=    5857kB time=00:02:56.02 bitrate= 272.6kbits/s speed=0.999x    frame= 5256 fps= 30 q=31.0 size=    5870kB time=00:02:56.40 bitrate= 272.6kbits/s speed=0.999x    frame= 5274 fps= 30 q=31.0 size=    5891kB time=00:02:57.03 bitrate= 272.6kbits/s speed=0.999x    frame= 5291 fps= 30 q=31.0 size=    5905kB time=00:02:57.41 bitrate= 272.7kbits/s speed=0.999x    frame= 5305 fps= 30 q=24.8 size=    5927kB time=00:02:58.03 bitrate= 272.7kbits/s speed=0.999x    frame= 5329 fps= 30 q=24.8 size=    5954kB time=00:02:58.42 bitrate= 273.4kbits/s speed=0.999x    frame= 5336 fps= 30 q=31.0 size=    5956kB time=00:02:59.04 bitrate= 272.5kbits/s speed=   1x    frame= 5354 fps= 30 q=31.0 size=    5978kB time=00:02:59.43 bitrate= 272.9kbits/s speed=0.999x    frame= 5366 fps= 30 q=31.0 size=    5990kB time=00:03:00.05 bitrate= 272.5kbits/s speed=0.999x    frame= 5384 fps= 30 q=31.0 size=    6003kB time=00:03:00.41 bitrate= 272.6kbits/s speed=0.999x    frame= 5396 fps= 30 q=31.0 size=    6016kB time=00:03:01.06 bitrate= 272.2kbits/s speed=   1x    frame= 5413 fps= 30 q=24.8 size=    6041kB time=00:03:01.42 bitrate= 272.8kbits/s speed=0.999x    frame= 5427 fps= 30 q=31.0 size=    6053kB time=00:03:02.07 bitrate= 272.3kbits/s speed=   1x    frame= 5450 fps= 30 q=31.0 size=    6077kB time=00:03:02.50 bitrate= 272.8kbits/s speed=0.999x    frame= 5456 fps= 30 q=31.0 size=    6078kB time=00:03:03.07 bitrate= 272.0kbits/s speed=0.999x    frame= 5478 fps= 30 q=31.0 size=    6103kB time=00:03:03.53 bitrate= 272.4kbits/s speed=0.999x    frame= 5485 fps= 30 q=24.8 size=    6114kB time=00:03:04.08 bitrate= 272.1kbits/s speed=0.999x    frame= 5508 fps= 30 q=31.0 size=    6133kB time=00:03:04.53 bitrate= 272.2kbits/s speed=0.999x    frame= 5516 fps= 30 q=31.0 size=    6147kB time=00:03:05.09 bitrate= 272.0kbits/s speed=0.999x    frame= 5537 fps= 30 q=31.0 size=    6174kB time=00:03:05.56 bitrate= 272.5kbits/s speed=0.999x    frame= 5544 fps= 30 q=31.0 size=    6176kB time=00:03:06.10 bitrate= 271.9kbits/s speed=0.999x    frame= 5562 fps= 30 q=31.0 size=    6202kB time=00:03:06.43 bitrate= 272.5kbits/s speed=0.999x    frame= 5575 fps= 30 q=31.0 size=    6215kB time=00:03:07.11 bitrate= 272.1kbits/s speed=0.999x    frame= 5596 fps= 30 q=31.0 size=    6241kB time=00:03:07.56 bitrate= 272.6kbits/s speed=0.999x    frame= 5606 fps= 30 q=31.0 size=    6255kB time=00:03:08.11 bitrate= 272.4kbits/s speed=0.999x    frame= 5627 fps= 30 q=31.0 size=    6274kB time=00:03:08.60 bitrate= 272.5kbits/s speed=0.999x    frame= 5637 fps= 30 q=31.0 size=    6286kB time=00:03:09.15 bitrate= 272.3kbits/s speed=   1x    frame= 5657 fps= 30 q=31.0 size=    6310kB time=00:03:09.60 bitrate= 272.7kbits/s speed=0.999x    frame= 5668 fps= 30 q=31.0 size=    6322kB time=00:03:10.15 bitrate= 272.4kbits/s speed=   1x    frame= 5688 fps= 30 q=31.0 size=    6338kB time=00:03:10.63 bitrate= 272.4kbits/s speed=0.999x    frame= 5699 fps= 30 q=31.0 size=    6351kB time=00:03:11.14 bitrate= 272.2kbits/s speed=0.999x    frame= 5718 fps= 30 q=31.0 size=    6377kB time=00:03:11.63 bitrate= 272.6kbits/s speed=0.999x    frame= 5730 fps= 30 q=31.0 size=    6391kB time=00:03:12.17 bitrate= 272.4kbits/s speed=   1x    frame= 5748 fps= 30 q=31.0 size=    6410kB time=00:03:12.63 bitrate= 272.6kbits/s speed=0.999x    frame= 5761 fps= 30 q=24.8 size=    6432kB time=00:03:13.06 bitrate= 272.9kbits/s speed=0.999x    frame= 5777 fps= 30 q=31.0 size=    6446kB time=00:03:13.63 bitrate= 272.7kbits/s speed=0.999x    frame= 5792 fps= 30 q=31.0 size=    6460kB time=00:03:14.13 bitrate= 272.6kbits/s speed=0.999x    frame= 5807 fps= 30 q=31.0 size=    6475kB time=00:03:14.63 bitrate= 272.5kbits/s speed=0.999x    frame= 5823 fps= 30 q=31.0 size=    6499kB time=00:03:15.16 bitrate= 272.8kbits/s speed=0.999x    frame= 5838 fps= 30 q=31.0 size=    6514kB time=00:03:15.66 bitrate= 272.7kbits/s speed=0.999x    frame= 5853 fps= 30 q=31.0 size=    6531kB time=00:03:16.16 bitrate= 272.7kbits/s speed=0.999x    frame= 5868 fps= 30 q=31.0 size=    6545kB time=00:03:16.66 bitrate= 272.6kbits/s speed=0.999x    frame= 5882 fps= 30 q=31.0 size=    6569kB time=00:03:17.16 bitrate= 272.9kbits/s speed=0.999x    frame= 5897 fps= 30 q=31.0 size=    6583kB time=00:03:17.66 bitrate= 272.8kbits/s speed=0.999x    frame= 5912 fps= 30 q=31.0 size=    6601kB time=00:03:18.16 bitrate= 272.9kbits/s speed=0.999x    frame= 5927 fps= 30 q=31.0 size=    6618kB time=00:03:18.66 bitrate= 272.9kbits/s speed=0.999x    frame= 5942 fps= 30 q=31.0 size=    6640kB time=00:03:19.16 bitrate= 273.1kbits/s speed=0.999x    frame= 5957 fps= 30 q=31.0 size=    6653kB time=00:03:19.70 bitrate= 272.9kbits/s speed=0.999x    frame= 5972 fps= 30 q=31.0 size=    6666kB time=00:03:20.20 bitrate= 272.8kbits/s speed=0.999x    frame= 5987 fps= 30 q=31.0 size=    6679kB time=00:03:20.70 bitrate= 272.6kbits/s speed=0.999x    frame= 6002 fps= 30 q=31.0 size=    6704kB time=00:03:21.20 bitrate= 273.0kbits/s speed=0.999x    frame= 6007 fps= 30 q=31.0 size=    6705kB time=00:03:21.75 bitrate= 272.3kbits/s speed=   1x    frame= 6007 fps= 30 q=31.0 size=    6705kB time=00:03:22.27 bitrate= 271.6kbits/s speed=   1x    frame= 6037 fps= 30 q=24.8 size=    6751kB time=00:03:22.75 bitrate= 272.8kbits/s speed=0.999x    frame= 6037 fps= 30 q=24.8 size=    6751kB time=00:03:23.26 bitrate= 272.1kbits/s speed=   1x    frame= 6067 fps= 30 q=31.0 size=    6778kB time=00:03:23.76 bitrate= 272.5kbits/s speed=   1x    frame= 6067 fps= 30 q=31.0 size=    6778kB time=00:03:24.27 bitrate= 271.8kbits/s speed=   1x    frame= 6098 fps= 30 q=31.0 size=    6821kB time=00:03:24.77 bitrate= 272.9kbits/s speed=   1x    frame= 6098 fps= 30 q=31.0 size=    6821kB time=00:03:25.27 bitrate= 272.2kbits/s speed=   1x    frame= 6129 fps= 30 q=31.0 size=    6852kB time=00:03:25.78 bitrate= 272.8kbits/s speed=0.999x    frame= 6129 fps= 30 q=31.0 size=    6852kB time=00:03:26.31 bitrate= 272.1kbits/s speed=   1x    frame= 6159 fps= 30 q=31.0 size=    6893kB time=00:03:26.79 bitrate= 273.0kbits/s speed=   1x    frame= 6159 fps= 30 q=31.0 size=    6893kB time=00:03:27.29 bitrate= 272.4kbits/s speed=0.999x    frame= 6189 fps= 30 q=31.0 size=    6921kB time=00:03:27.82 bitrate= 272.8kbits/s speed=   1x    frame= 6189 fps= 30 q=31.0 size=    6921kB time=00:03:28.30 bitrate= 272.2kbits/s speed=0.999x    frame= 6216 fps= 30 q=31.0 size=    6952kB time=00:03:28.80 bitrate= 272.7kbits/s speed=0.999x    frame= 6216 fps= 30 q=31.0 size=    6952kB time=00:03:29.33 bitrate= 272.0kbits/s speed=   1x    frame= 6245 fps= 30 q=31.0 size=    6993kB time=00:03:29.83 bitrate= 273.0kbits/s speed=   1x    frame= 6245 fps= 30 q=31.0 size=    6993kB time=00:03:30.34 bitrate= 272.3kbits/s speed=   1x    frame= 6275 fps= 30 q=31.0 size=    7021kB time=00:03:30.84 bitrate= 272.8kbits/s speed=   1x    frame= 6275 fps= 30 q=31.0 size=    7021kB time=00:03:31.32 bitrate= 272.2kbits/s speed=0.999x    frame= 6303 fps= 30 q=31.0 size=    7058kB time=00:03:31.85 bitrate= 272.9kbits/s speed=   1x    frame= 6303 fps= 30 q=31.0 size=    7058kB time=00:03:32.35 bitrate= 272.3kbits/s speed=   1x    frame= 6330 fps= 30 q=31.0 size=    7090kB time=00:03:32.81 bitrate= 272.9kbits/s speed=0.999x    frame= 6330 fps= 30 q=31.0 size=    7090kB time=00:03:33.36 bitrate= 272.2kbits/s speed=   1x    frame= 6359 fps= 30 q=31.0 size=    7120kB time=00:03:33.76 bitrate= 272.8kbits/s speed=0.999x    frame= 6359 fps= 30 q=31.0 size=    7120kB time=00:03:34.37 bitrate= 272.1kbits/s speed=   1x    frame= 6390 fps= 30 q=31.0 size=    7161kB time=00:03:34.80 bitrate= 273.1kbits/s speed=0.999x    frame= 6390 fps= 30 q=31.0 size=    7161kB time=00:03:35.35 bitrate= 272.4kbits/s speed=   1x    frame= 6420 fps= 30 q=31.0 size=    7189kB time=00:03:35.80 bitrate= 272.9kbits/s speed=0.999x    frame= 6421 fps= 30 q=24.8 size=    7198kB time=00:03:36.39 bitrate= 272.5kbits/s speed=   1x    frame= 6449 fps= 30 q=31.0 size=    7229kB time=00:03:36.83 bitrate= 273.1kbits/s speed=0.999x    frame= 6450 fps= 30 q=31.0 size=    7229kB time=00:03:37.39 bitrate= 272.4kbits/s speed=   1x    frame= 6478 fps= 30 q=31.0 size=    7263kB time=00:03:37.83 bitrate= 273.1kbits/s speed=0.999x    frame= 6480 fps= 30 q=31.0 size=    7264kB time=00:03:38.40 bitrate= 272.5kbits/s speed=   1x    frame= 6507 fps= 30 q=31.0 size=    7311kB time=00:03:38.83 bitrate= 273.7kbits/s speed=0.999x    frame= 6510 fps= 30 q=31.0 size=    7311kB time=00:03:39.39 bitrate= 273.0kbits/s speed=0.999x    frame= 6535 fps= 30 q=31.0 size=    7341kB time=00:03:39.80 bitrate= 273.6kbits/s speed=0.999x    frame= 6539 fps= 30 q=31.0 size=    7343kB time=00:03:40.42 bitrate= 272.9kbits/s speed=   1x    frame= 6566 fps= 30 q=31.0 size=    7383kB time=00:03:40.86 bitrate= 273.8kbits/s speed=0.999x    frame= 6570 fps= 30 q=31.0 size=    7384kB time=00:03:41.43 bitrate= 273.2kbits/s speed=   1x    frame= 6594 fps= 30 q=31.0 size=    7409kB time=00:03:41.86 bitrate= 273.6kbits/s speed=0.999x    frame= 6599 fps= 30 q=31.0 size=    7413kB time=00:03:42.43 bitrate= 273.0kbits/s speed=   1x    frame= 6624 fps= 30 q=31.0 size=    7440kB time=00:03:42.86 bitrate= 273.5kbits/s speed=0.999x    frame= 6630 fps= 30 q=31.0 size=    7451kB time=00:03:43.44 bitrate= 273.2kbits/s speed=   1x    frame= 6654 fps= 30 q=31.0 size=    7480kB time=00:03:43.90 bitrate= 273.7kbits/s speed=0.999x    frame= 6659 fps= 30 q=31.0 size=    7485kB time=00:03:44.47 bitrate= 273.1kbits/s speed=   1x    frame= 6682 fps= 30 q=31.0 size=    7515kB time=00:03:44.90 bitrate= 273.7kbits/s speed=0.999x    frame= 6689 fps= 30 q=31.0 size=    7529kB time=00:03:45.48 bitrate= 273.5kbits/s speed=   1x    frame= 6712 fps= 30 q=31.0 size=    7559kB time=00:03:45.93 bitrate= 274.1kbits/s speed=0.999x    frame= 6720 fps= 30 q=31.0 size=    7562kB time=00:03:46.49 bitrate= 273.5kbits/s speed=   1x    frame= 6740 fps= 30 q=31.0 size=    7587kB time=00:03:46.86 bitrate= 273.9kbits/s speed=0.999x    frame= 6748 fps= 30 q=31.0 size=    7599kB time=00:03:47.50 bitrate= 273.6kbits/s speed=   1x    frame= 6769 fps= 30 q=24.8 size=    7624kB time=00:03:47.96 bitrate= 274.0kbits/s speed=0.999x    frame= 6778 fps= 30 q=31.0 size=    7629kB time=00:03:48.53 bitrate= 273.5kbits/s speed=   1x    frame= 6798 fps= 30 q=31.0 size=    7654kB time=00:03:48.96 bitrate= 273.8kbits/s speed=0.999x    frame= 6808 fps= 30 q=31.0 size=    7665kB time=00:03:49.54 bitrate= 273.5kbits/s speed=   1x    frame= 6827 fps= 30 q=31.0 size=    7679kB time=00:03:49.96 bitrate= 273.5kbits/s speed=0.999x    frame= 6838 fps= 30 q=31.0 size=    7691kB time=00:03:50.52 bitrate= 273.3kbits/s speed=   1x    frame= 6856 fps= 30 q=31.0 size=    7714kB time=00:03:50.96 bitrate= 273.6kbits/s speed=0.999x    frame= 6869 fps= 30 q=31.0 size=    7727kB time=00:03:51.53 bitrate= 273.4kbits/s speed=   1x    frame= 6869 fps= 30 q=31.0 size=    7727kB time=00:03:52.03 bitrate= 272.8kbits/s speed=   1x    frame= 6872 fps= 30 q=31.0 size=    7728kB time=00:03:52.56 bitrate= 272.2kbits/s speed=   1x    frame= 6900 fps= 30 q=31.0 size=    7756kB time=00:03:53.07 bitrate= 272.6kbits/s speed=   1x    frame= 6903 fps= 30 q=31.0 size=    7765kB time=00:03:53.57 bitrate= 272.3kbits/s speed=   1x    frame= 6930 fps= 30 q=31.0 size=    7792kB time=00:03:54.07 bitrate= 272.7kbits/s speed=   1x    frame= 6932 fps= 30 q=31.0 size=    7792kB time=00:03:54.55 bitrate= 272.1kbits/s speed=0.999x    frame= 6957 fps= 30 q=31.0 size=    7818kB time=00:03:55.08 bitrate= 272.4kbits/s speed=   1x    frame= 6959 fps= 30 q=31.0 size=    7819kB time=00:03:55.56 bitrate= 271.9kbits/s speed=0.999x    frame= 6986 fps= 30 q=31.0 size=    7855kB time=00:03:56.09 bitrate= 272.6kbits/s speed=   1x    frame= 6991 fps= 30 q=31.0 size=    7858kB time=00:03:56.57 bitrate= 272.1kbits/s speed=0.999x    frame= 7014 fps= 30 q=31.0 size=    7884kB time=00:03:57.10 bitrate= 272.4kbits/s speed=   1x    frame= 7017 fps= 30 q=31.0 size=    7885kB time=00:03:57.58 bitrate= 271.9kbits/s speed=0.999x    frame= 7044 fps= 30 q=31.0 size=    7916kB time=00:03:58.13 bitrate= 272.3kbits/s speed=   1x    frame= 7052 fps= 30 q=31.0 size=    7927kB time=00:03:58.56 bitrate= 272.2kbits/s speed=0.999x    frame= 7075 fps= 30 q=31.0 size=    7954kB time=00:03:59.14 bitrate= 272.5kbits/s speed=   1x    frame= 7079 fps= 30 q=31.0 size=    7956kB time=00:03:59.57 bitrate= 272.1kbits/s speed=0.999x    frame= 7106 fps= 30 q=31.0 size=    7994kB time=00:04:00.12 bitrate= 272.7kbits/s speed=   1x    frame= 7113 fps= 30 q=31.0 size=    7996kB time=00:04:00.58 bitrate= 272.3kbits/s speed=0.999x    frame= 7137 fps= 30 q=31.0 size=    8021kB time=00:04:01.13 bitrate= 272.5kbits/s speed=   1x    frame= 7148 fps= 30 q=31.0 size=    8035kB time=00:04:01.59 bitrate= 272.4kbits/s speed=0.999x    frame= 7168 fps= 30 q=31.0 size=    8061kB time=00:04:02.14 bitrate= 272.7kbits/s speed=   1x    frame= 7173 fps= 30 q=31.0 size=    8063kB time=00:04:02.59 bitrate= 272.3kbits/s speed=0.999x    frame= 7198 fps= 30 q=31.0 size=    8096kB time=00:04:03.17 bitrate= 272.7kbits/s speed=   1x    frame= 7210 fps= 30 q=31.0 size=    8110kB time=00:04:03.58 bitrate= 272.8kbits/s speed=0.999x    frame= 7229 fps= 30 q=31.0 size=    8133kB time=00:04:04.15 bitrate= 272.9kbits/s speed=   1x    frame= 7235 fps= 30 q=31.0 size=    8135kB time=00:04:04.59 bitrate= 272.5kbits/s speed=0.999x    frame= 7260 fps= 30 q=31.0 size=    8159kB time=00:04:05.16 bitrate= 272.6kbits/s speed=   1x    frame= 7268 fps= 30 q=31.0 size=    8170kB time=00:04:05.59 bitrate= 272.5kbits/s speed=0.999x    frame= 7291 fps= 30 q=31.0 size=    8195kB time=00:04:06.17 bitrate= 272.7kbits/s speed=   1x    frame= 7302 fps= 30 q=31.0 size=    8207kB time=00:04:06.60 bitrate= 272.6kbits/s speed=0.999x    frame= 7322 fps= 30 q=31.0 size=    8231kB time=00:04:07.18 bitrate= 272.8kbits/s speed=   1x    frame= 7330 fps= 30 q=31.0 size=    8233kB time=00:04:07.59 bitrate= 272.4kbits/s speed=0.999x    frame= 7353 fps= 30 q=31.0 size=    8258kB time=00:04:08.16 bitrate= 272.6kbits/s speed=   1x    frame= 7368 fps= 30 q=31.0 size=    8271kB time=00:04:08.59 bitrate= 272.5kbits/s speed=0.999x    frame= 7384 fps= 30 q=31.0 size=    8295kB time=00:04:09.19 bitrate= 272.7kbits/s speed=   1x    frame= 7395 fps= 30 q=31.0 size=    8309kB time=00:04:09.60 bitrate= 272.7kbits/s speed=0.999x    frame= 7415 fps= 30 q=31.0 size=    8323kB time=00:04:10.20 bitrate= 272.5kbits/s speed=   1x    frame= 7425 fps= 30 q=31.0 size=    8336kB time=00:04:10.61 bitrate= 272.5kbits/s speed=0.999x    frame= 7446 fps= 30 q=31.0 size=    8362kB time=00:04:11.21 bitrate= 272.7kbits/s speed=   1x    frame= 7460 fps= 30 q=31.0 size=    8376kB time=00:04:11.62 bitrate= 272.7kbits/s speed=0.999x    frame= 7477 fps= 30 q=24.8 size=    8399kB time=00:04:12.19 bitrate= 272.8kbits/s speed=   1x    frame= 7490 fps= 30 q=31.0 size=    8413kB time=00:04:12.60 bitrate= 272.8kbits/s speed=0.999x    frame= 7508 fps= 30 q=31.0 size=    8428kB time=00:04:13.20 bitrate= 272.7kbits/s speed=   1x    frame= 7523 fps= 30 q=31.0 size=    8445kB time=00:04:13.61 bitrate= 272.8kbits/s speed=0.999x    frame= 7539 fps= 30 q=31.0 size=    8468kB time=00:04:14.23 bitrate= 272.8kbits/s speed=   1x    frame= 7554 fps= 30 q=31.0 size=    8482kB time=00:04:14.63 bitrate= 272.9kbits/s speed=0.999x    frame= 7569 fps= 30 q=31.0 size=    8496kB time=00:04:15.16 bitrate= 272.8kbits/s speed=0.999x    frame= 7585 fps= 30 q=24.8 size=    8523kB time=00:04:15.70 bitrate= 273.1kbits/s speed=0.999x    frame= 7600 fps= 30 q=31.0 size=    8538kB time=00:04:16.20 bitrate= 273.0kbits/s speed=0.999x    frame= 7615 fps= 30 q=31.0 size=    8550kB time=00:04:16.70 bitrate= 272.9kbits/s speed=0.999x    frame= 7630 fps= 30 q=31.0 size=    8563kB time=00:04:17.20 bitrate= 272.7kbits/s speed=0.999x    frame= 7645 fps= 30 q=24.8 size=    8585kB time=00:04:17.70 bitrate= 272.9kbits/s speed=0.999x    frame= 7659 fps= 30 q=31.0 size=    8597kB time=00:04:18.20 bitrate= 272.8kbits/s speed=0.999x    frame= 7674 fps= 30 q=31.0 size=    8610kB time=00:04:18.70 bitrate= 272.7kbits/s speed=0.999x    frame= 7688 fps= 30 q=31.0 size=    8625kB time=00:04:19.20 bitrate= 272.6kbits/s speed=0.999x    frame= 7704 fps= 30 q=31.0 size=    8643kB time=00:04:19.73 bitrate= 272.6kbits/s speed=0.999x    frame= 7719 fps= 30 q=31.0 size=    8671kB time=00:04:20.23 bitrate= 272.9kbits/s speed=0.999x    frame= 7733 fps= 30 q=31.0 size=    8687kB time=00:04:20.73 bitrate= 272.9kbits/s speed=0.999x    frame= 7748 fps= 30 q=31.0 size=    8708kB time=00:04:21.23 bitrate= 273.1kbits/s speed=0.999x    frame= 7762 fps= 30 q=31.0 size=    8723kB time=00:04:21.73 bitrate= 273.0kbits/s speed=0.999x    frame= 7776 fps= 30 q=31.0 size=    8738kB time=00:04:22.23 bitrate= 273.0kbits/s speed=0.999x    frame= 7792 fps= 30 q=31.0 size=    8760kB time=00:04:22.76 bitrate= 273.1kbits/s speed=   1x    frame= 7807 fps= 30 q=31.0 size=    8773kB time=00:04:23.26 bitrate= 273.0kbits/s speed=0.999x    frame= 7821 fps= 30 q=31.0 size=    8785kB time=00:04:23.73 bitrate= 272.9kbits/s speed=0.999x    frame= 7836 fps= 30 q=31.0 size=    8797kB time=00:04:24.26 bitrate= 272.7kbits/s speed=0.999x    frame= 7851 fps= 30 q=31.0 size=    8819kB time=00:04:24.76 bitrate= 272.8kbits/s speed=0.999x    frame= 7865 fps= 30 q=31.0 size=    8831kB time=00:04:25.23 bitrate= 272.8kbits/s speed=0.999x    frame= 7880 fps= 30 q=31.0 size=    8844kB time=00:04:25.76 bitrate= 272.6kbits/s speed=0.999x    frame= 7894 fps= 30 q=31.0 size=    8857kB time=00:04:26.26 bitrate= 272.5kbits/s speed=0.999x    frame= 7902 fps= 30 q=31.0 size=    8868kB time=00:04:26.83 bitrate= 272.2kbits/s speed=   1x    frame= 7902 fps= 30 q=31.0 size=    8868kB time=00:04:27.34 bitrate= 271.7kbits/s speed=   1x    frame= 7933 fps= 30 q=24.8 size=    8904kB time=00:04:27.84 bitrate= 272.3kbits/s speed=   1x    frame= 7933 fps= 30 q=24.8 size=    8904kB time=00:04:28.35 bitrate= 271.8kbits/s speed=   1x    frame= 7964 fps= 30 q=31.0 size=    8934kB time=00:04:28.87 bitrate= 272.2kbits/s speed=   1x    frame= 7964 fps= 30 q=31.0 size=    8934kB time=00:04:29.38 bitrate= 271.7kbits/s speed=   1x    frame= 7995 fps= 30 q=31.0 size=    8969kB time=00:04:29.88 bitrate= 272.2kbits/s speed=   1x    frame= 7995 fps= 30 q=31.0 size=    8969kB time=00:04:30.39 bitrate= 271.7kbits/s speed=   1x    frame= 8026 fps= 30 q=31.0 size=    8996kB time=00:04:30.89 bitrate= 272.1kbits/s speed=   1x    frame= 8026 fps= 30 q=31.0 size=    8996kB time=00:04:31.39 bitrate= 271.5kbits/s speed=   1x    frame= 8056 fps= 30 q=31.0 size=    9030kB time=00:04:31.90 bitrate= 272.1kbits/s speed=   1x    frame= 8056 fps= 30 q=31.0 size=    9030kB time=00:04:32.40 bitrate= 271.6kbits/s speed=   1x    frame= 8087 fps= 30 q=31.0 size=    9056kB time=00:04:32.93 bitrate= 271.8kbits/s speed=   1x    frame= 8087 fps= 30 q=31.0 size=    9056kB time=00:04:33.43 bitrate= 271.3kbits/s speed=   1x    frame= 8118 fps= 30 q=31.0 size=    9092kB time=00:04:33.94 bitrate= 271.9kbits/s speed=   1x    frame= 8118 fps= 30 q=31.0 size=    9092kB time=00:04:34.44 bitrate= 271.4kbits/s speed=   1x    frame= 8149 fps= 30 q=24.8 size=    9125kB time=00:04:34.95 bitrate= 271.9kbits/s speed=   1x    frame= 8149 fps= 30 q=24.8 size=    9125kB time=00:04:35.43 bitrate= 271.4kbits/s speed=   1x    frame= 8180 fps= 30 q=31.0 size=    9150kB time=00:04:35.95 bitrate= 271.6kbits/s speed=   1x    frame= 8180 fps= 30 q=31.0 size=    9150kB time=00:04:36.46 bitrate= 271.1kbits/s speed=   1x    frame= 8211 fps= 30 q=31.0 size=    9184kB time=00:04:36.96 bitrate= 271.6kbits/s speed=   1x    frame= 8211 fps= 30 q=31.0 size=    9184kB time=00:04:37.47 bitrate= 271.1kbits/s speed=   1x    frame= 8242 fps= 30 q=31.0 size=    9213kB time=00:04:37.90 bitrate= 271.6kbits/s speed=0.999x    frame= 8242 fps= 30 q=31.0 size=    9213kB time=00:04:38.47 bitrate= 271.0kbits/s speed=   1x    frame= 8273 fps= 30 q=31.0 size=    9251kB time=00:04:38.93 bitrate= 271.7kbits/s speed=   1x    frame= 8273 fps= 30 q=31.0 size=    9251kB time=00:04:39.46 bitrate= 271.2kbits/s speed=   1x    frame= 8303 fps= 30 q=31.0 size=    9285kB time=00:04:39.93 bitrate= 271.7kbits/s speed=0.999x    frame= 8304 fps= 30 q=31.0 size=    9286kB time=00:04:40.49 bitrate= 271.2kbits/s speed=   1x    frame= 8334 fps= 30 q=31.0 size=    9322kB time=00:04:40.96 bitrate= 271.8kbits/s speed=   1x    frame= 8335 fps= 30 q=31.0 size=    9322kB time=00:04:41.50 bitrate= 271.3kbits/s speed=   1x    frame= 8364 fps= 30 q=31.0 size=    9351kB time=00:04:41.96 bitrate= 271.7kbits/s speed=   1x    frame= 8366 fps= 30 q=31.0 size=    9360kB time=00:04:42.53 bitrate= 271.4kbits/s speed=   1x    frame= 8394 fps= 30 q=31.0 size=    9387kB time=00:04:42.96 bitrate= 271.8kbits/s speed=0.999x    frame= 8397 fps= 30 q=31.0 size=    9389kB time=00:04:43.51 bitrate= 271.3kbits/s speed=   1x    frame= 8424 fps= 30 q=31.0 size=    9421kB time=00:04:44.00 bitrate= 271.8kbits/s speed=   1x    frame= 8427 fps= 30 q=31.0 size=    9431kB time=00:04:44.52 bitrate= 271.5kbits/s speed=   1x    frame= 8454 fps= 30 q=31.0 size=    9460kB time=00:04:45.00 bitrate= 271.9kbits/s speed=0.999x    frame= 8458 fps= 30 q=31.0 size=    9462kB time=00:04:45.55 bitrate= 271.4kbits/s speed=   1x    frame= 8485 fps= 30 q=24.8 size=    9499kB time=00:04:46.03 bitrate= 272.1kbits/s speed=   1x    frame= 8488 fps= 30 q=31.0 size=    9500kB time=00:04:46.56 bitrate= 271.6kbits/s speed=   1x    frame= 8514 fps= 30 q=31.0 size=    9526kB time=00:04:47.03 bitrate= 271.9kbits/s speed=   1x    frame= 8518 fps= 30 q=31.0 size=    9528kB time=00:04:47.57 bitrate= 271.4kbits/s speed=   1x    frame= 8543 fps= 30 q=31.0 size=    9556kB time=00:04:48.06 bitrate= 271.7kbits/s speed=   1x    frame= 8547 fps= 30 q=31.0 size=    9566kB time=00:04:48.60 bitrate= 271.5kbits/s speed=   1x    frame= 8572 fps= 30 q=31.0 size=    9593kB time=00:04:49.06 bitrate= 271.9kbits/s speed=   1x    frame= 8577 fps= 30 q=31.0 size=    9595kB time=00:04:49.61 bitrate= 271.4kbits/s speed=   1x    frame= 8601 fps= 30 q=31.0 size=    9621kB time=00:04:50.06 bitrate= 271.7kbits/s speed=   1x    frame= 8608 fps= 30 q=31.0 size=    9632kB time=00:04:50.59 bitrate= 271.5kbits/s speed=   1x    frame= 8632 fps= 30 q=31.0 size=    9657kB time=00:04:51.10 bitrate= 271.8kbits/s speed=   1x    frame= 8639 fps= 30 q=31.0 size=    9660kB time=00:04:51.63 bitrate= 271.4kbits/s speed=   1x    frame= 8662 fps= 30 q=31.0 size=    9684kB time=00:04:52.10 bitrate= 271.6kbits/s speed=   1x    frame= 8670 fps= 30 q=31.0 size=    9696kB time=00:04:52.63 bitrate= 271.4kbits/s speed=   1x    frame= 8692 fps= 30 q=31.0 size=    9721kB time=00:04:53.10 bitrate= 271.7kbits/s speed=   1x    frame= 8701 fps= 30 q=24.8 size=    9734kB time=00:04:53.67 bitrate= 271.5kbits/s speed=   1x    frame= 8723 fps= 30 q=31.0 size=    9751kB time=00:04:54.13 bitrate= 271.6kbits/s speed=   1x    frame= 8732 fps= 30 q=31.0 size=    9763kB time=00:04:54.65 bitrate= 271.4kbits/s speed=   1x    frame= 8753 fps= 30 q=31.0 size=    9787kB time=00:04:55.13 bitrate= 271.7kbits/s speed=   1x    frame= 8763 fps= 30 q=31.0 size=    9800kB time=00:04:55.66 bitrate= 271.5kbits/s speed=   1x    frame= 8783 fps= 30 q=31.0 size=    9816kB time=00:04:56.13 bitrate= 271.5kbits/s speed=   1x    frame= 8794 fps= 30 q=31.0 size=    9828kB time=00:04:56.67 bitrate= 271.4kbits/s speed=   1x    frame= 8813 fps= 30 q=31.0 size=    9852kB time=00:04:57.13 bitrate= 271.6kbits/s speed=   1x    frame= 8825 fps= 30 q=31.0 size=    9867kB time=00:04:57.70 bitrate= 271.5kbits/s speed=   1x    frame= 8844 fps= 30 q=31.0 size=    9881kB time=00:04:58.16 bitrate= 271.5kbits/s speed=   1x    frame= 8856 fps= 30 q=31.0 size=    9893kB time=00:04:58.56 bitrate= 271.4kbits/s speed=0.999x    